<?xml version="1.0" encoding="iso-8859-1"?>
<!-- Generator: Adobe Illustrator 18.0.0, SVG Export Plug-In . SVG Version: 6.00 Build 0)  -->
<!DOCTYPE svg PUBLIC "-//W3C//DTD SVG 1.1//EN" "http://www.w3.org/Graphics/SVG/1.1/DTD/svg11.dtd">
<svg version="1.1" id="Capa_1" xmlns="http://www.w3.org/2000/svg" xmlns:xlink="http://www.w3.org/1999/xlink" x="0px" y="0px"
	 viewBox="0 0 297.5 297.5" style="enable-background:new 0 0 297.5 297.5;" xml:space="preserve">
<g>
	<g id="XMLID_47_">
		<g>
			<path style="fill:#F4AF30;" d="M111.3,116.27h74.91c-4.12,16.86-19.35,29.41-37.46,29.41
				C130.65,145.68,115.42,133.13,111.3,116.27z"/>
			<path style="fill:#F4AF30;" d="M240.36,243.44c14.079,5.59,15.59,10.06,15.609,10.06c-0.14,0.75-1.649,2.82-5.99,5.49
				c-4.34,2.68-11.529,5.939-23.029,9.06c-21.061,5.72-48.83,8.87-78.2,8.87c-29.36,0-57.13-3.15-78.19-8.87
				c-23-6.24-28.75-13.06-29.029-14.45c0.01-0.04,1.449-4.529,15.609-10.159c11.49-4.561,27.16-8.171,45.431-10.48
				c21.479,19.22,40.14,30.22,41.05,30.76c1.59,0.931,3.359,1.391,5.13,1.391c1.78,0,3.55-0.46,5.13-1.391
				c0.92-0.54,19.57-11.54,41.06-30.76C213.21,235.27,228.88,238.88,240.36,243.44z"/>
			<path style="fill:#AE9676;" d="M123.41,95.02c5.05,0,9.14-4.1,9.14-9.149V63.39c0-5.05-4.09-9.149-9.14-9.149
				c-5.061,0-9.15,4.1-9.15,9.149V85.87C114.26,90.92,118.35,95.02,123.41,95.02z M196.45,97.98H101.06
				c-5.059,0-9.149,4.1-9.149,9.149c0,23.8,14.71,44.22,35.51,52.67H98.45c-5.05,0-9.15,4.101-9.15,9.15
				c0,5.05,4.101,9.14,9.15,9.14H199.06c5.051,0,9.141-4.09,9.141-9.14c0-5.05-4.09-9.15-9.141-9.15h-28.98
				c20.8-8.45,35.51-28.87,35.51-52.67C205.59,102.08,201.5,97.98,196.45,97.98z M174.1,95.02c5.051,0,9.15-4.1,9.15-9.149V63.39
				c0-5.05-4.1-9.149-9.15-9.149c-5.05,0-9.149,4.1-9.149,9.149V85.87C164.95,90.92,169.05,95.02,174.1,95.02z M148.75,20.58
				c50.16,0,90.96,40.8,90.96,90.95c0,66.84-71.03,118.279-90.96,131.399C128.82,229.81,57.8,178.37,57.8,111.53
				C57.8,61.38,98.6,20.58,148.75,20.58z M157.9,73.2V50.72c0-5.05-4.101-9.149-9.15-9.149c-5.05,0-9.14,4.1-9.14,9.149V73.2
				c0,5.05,4.09,9.14,9.14,9.14C153.8,82.34,157.9,78.25,157.9,73.2z"/>
			<path d="M276.29,253.55c0,14.311-14.04,25.57-41.75,33.49c-23.05,6.58-53.521,10.21-85.79,10.21c-32.27,0-62.73-3.63-85.79-10.21
				c-27.7-7.92-41.75-19.18-41.75-33.49c0-22.37,34.11-33.22,63.191-38.399C53.66,181.99,37.47,146.32,37.47,111.53
				c0-61.36,49.92-111.28,111.28-111.28c61.36,0,111.28,49.92,111.28,111.28c0,34.79-16.19,70.46-46.92,103.62
				C242.18,220.33,276.29,231.18,276.29,253.55z M255.97,253.5c-0.02,0-1.53-4.47-15.609-10.06
				c-11.48-4.561-27.15-8.171-45.421-10.48c-21.489,19.22-40.14,30.22-41.06,30.76c-1.58,0.931-3.35,1.391-5.13,1.391
				c-1.77,0-3.54-0.46-5.13-1.391c-0.91-0.54-19.57-11.54-41.05-30.76c-18.271,2.309-33.94,5.92-45.431,10.48
				c-14.16,5.63-15.6,10.119-15.609,10.159c0.279,1.391,6.029,8.21,29.029,14.45c21.061,5.72,48.83,8.87,78.19,8.87
				c29.37,0,57.14-3.15,78.2-8.87c11.5-3.12,18.689-6.38,23.029-9.06C254.32,256.32,255.83,254.25,255.97,253.5z M239.71,111.53
				c0-50.15-40.8-90.95-90.96-90.95c-50.15,0-90.95,40.8-90.95,90.95c0,66.84,71.02,118.279,90.95,131.399
				C168.68,229.81,239.71,178.37,239.71,111.53z"/>
			<path d="M199.06,159.8c5.051,0,9.141,4.101,9.141,9.15c0,5.05-4.09,9.14-9.141,9.14H98.45c-5.05,0-9.15-4.09-9.15-9.14
				c0-5.05,4.101-9.15,9.15-9.15h28.97c-20.8-8.45-35.51-28.87-35.51-52.67c0-5.05,4.09-9.149,9.149-9.149h95.391
				c5.05,0,9.14,4.1,9.14,9.149c0,23.8-14.71,44.22-35.51,52.67H199.06z M186.21,116.27H111.3c4.12,16.86,19.351,29.41,37.45,29.41
				C166.86,145.68,182.09,133.13,186.21,116.27z"/>
			<path d="M183.25,63.39V85.87c0,5.05-4.1,9.149-9.15,9.149c-5.05,0-9.149-4.1-9.149-9.149V63.39c0-5.05,4.1-9.149,9.149-9.149
				C179.15,54.24,183.25,58.34,183.25,63.39z"/>
			<path d="M157.9,50.72V73.2c0,5.05-4.101,9.14-9.15,9.14c-5.05,0-9.14-4.09-9.14-9.14V50.72c0-5.05,4.09-9.149,9.14-9.149
				C153.8,41.57,157.9,45.67,157.9,50.72z"/>
			<path d="M132.55,63.39V85.87c0,5.05-4.09,9.149-9.14,9.149c-5.061,0-9.15-4.1-9.15-9.149V63.39c0-5.05,4.09-9.149,9.15-9.149
				C128.46,54.24,132.55,58.34,132.55,63.39z"/>
		</g>
		<g>
		</g>
	</g>
</g>
<g>
</g>
<g>
</g>
<g>
</g>
<g>
</g>
<g>
</g>
<g>
</g>
<g>
</g>
<g>
</g>
<g>
</g>
<g>
</g>
<g>
</g>
<g>
</g>
<g>
</g>
<g>
</g>
<g>
</g>
</svg>
